<svg width="100" height="86" viewBox="0 0 100 86" fill="none" xmlns="http://www.w3.org/2000/svg">
<g clip-path="url(#clip0_1_39)">
<mask id="mask0_1_39" style="mask-type:luminance" maskUnits="userSpaceOnUse" x="0" y="0" width="48" height="48">
<path d="M48 0H0V48H48V0Z" fill="white"/>
</mask>
<g mask="url(#mask0_1_39)">
<path d="M20 14H16V22H8V26H16V34H20V26H28V22H20V14ZM40 36H36V14.75L30 16.8V13.4L39.4 10H40V36Z" fill="#64537C"/>
</g>
</g>
<path d="M68 32.75H62C61.59 32.75 61.25 32.41 61.25 32C61.25 31.59 61.59 31.25 62 31.25H68C68.41 31.25 68.75 31.59 68.75 32C68.75 32.41 68.41 32.75 68 32.75Z" fill="#64537C"/>
<path d="M65 35.75H62C61.59 35.75 61.25 35.41 61.25 35C61.25 34.59 61.59 34.25 62 34.25H65C65.41 34.25 65.75 34.59 65.75 35C65.75 35.41 65.41 35.75 65 35.75Z" fill="#64537C"/>
<path d="M59.5 48.75C53.85 48.75 49.25 44.15 49.25 38.5C49.25 32.85 53.85 28.25 59.5 28.25C59.91 28.25 60.25 28.59 60.25 29C60.25 29.41 59.91 29.75 59.5 29.75C54.67 29.75 50.75 33.68 50.75 38.5C50.75 43.32 54.67 47.25 59.5 47.25C64.33 47.25 68.25 43.32 68.25 38.5C68.25 38.09 68.59 37.75 69 37.75C69.41 37.75 69.75 38.09 69.75 38.5C69.75 44.15 65.15 48.75 59.5 48.75Z" fill="#64537C"/>
<path d="M69.9999 49.7499C69.8099 49.7499 69.6199 49.6799 69.4699 49.5299L67.4699 47.5299C67.1799 47.2399 67.1799 46.7599 67.4699 46.4699C67.7599 46.1799 68.2399 46.1799 68.5299 46.4699L70.5299 48.4699C70.8199 48.7599 70.8199 49.2399 70.5299 49.5299C70.3799 49.6799 70.1899 49.7499 69.9999 49.7499Z" fill="#64537C"/>
<g clip-path="url(#clip1_1_39)">
<path fill-rule="evenodd" clip-rule="evenodd" d="M27.0799 60.756C26.5999 61.259 26.2099 62.057 25.9799 63.196V63.216L23.1898 74.7C24.0298 74.25 24.9899 74 25.9999 74C28.9699 74 31.4399 76.16 31.9199 79H36.0799C36.5599 76.16 39.0299 74 41.9999 74C43.0099 74 43.97 74.25 44.81 74.7L42.0199 63.216V63.196C41.7899 62.057 41.3999 61.259 40.9199 60.756C40.4599 60.279 39.8499 60 38.9999 60C38.4499 60 37.9999 59.552 37.9999 59C37.9999 58.448 38.4499 58 38.9999 58C40.3599 58 41.4999 58.471 42.3599 59.369C43.1999 60.237 43.6999 61.431 43.9799 62.784L47.68 78.06C47.8 78.4 47.88 78.75 47.93 79.11L47.9699 79.26C47.9999 79.39 48.0099 79.52 47.9899 79.65C47.9999 79.76 47.9999 79.88 47.9999 80C47.9999 83.31 45.3099 86 41.9999 86C39.0299 86 36.5599 83.84 36.0799 81H31.9199C31.4399 83.84 28.9699 86 25.9999 86C22.6899 86 19.9999 83.31 19.9999 80C19.9999 79.88 19.9999 79.76 20.0099 79.65C19.9899 79.52 19.9999 79.39 20.0299 79.26L20.0698 79.11C20.1198 78.75 20.1998 78.4 20.3198 78.06L24.0199 62.784C24.2999 61.431 24.7999 60.237 25.6399 59.369C26.4999 58.471 27.6399 58 28.9999 58C29.5499 58 29.9999 58.448 29.9999 59C29.9999 59.552 29.5499 60 28.9999 60C28.1499 60 27.5399 60.279 27.0799 60.756ZM45.7599 78.64L45.9699 79.48C45.9899 79.65 45.9999 79.82 45.9999 80C45.9999 82.21 44.2099 84 41.9999 84C39.7899 84 37.9999 82.21 37.9999 80C37.9999 77.79 39.7899 76 41.9999 76C43.7299 76 45.1999 77.1 45.7599 78.64ZM22.2399 78.64L22.0299 79.48C22.0099 79.65 21.9999 79.82 21.9999 80C21.9999 82.21 23.7899 84 25.9999 84C28.2099 84 29.9999 82.21 29.9999 80C29.9999 77.79 28.2099 76 25.9999 76C24.2699 76 22.7999 77.1 22.2399 78.64Z" fill="#64537C"/>
</g>
<g clip-path="url(#clip2_1_39)">
<path d="M70.25 72.0242V77.1908L79 82.125L87.75 77.1908V72.0242L79 76.9583L70.25 72.0242ZM79 58.875L65.25 66.625L79 74.375L90.25 68.0329V76.9583H92.75V66.625L79 58.875Z" fill="#64537C"/>
</g>
<path d="M94.7917 9.04167H80.2083C79.0625 9.04167 78.1354 9.97917 78.1354 11.125L78.125 24.5938C78.125 25.3125 78.4896 25.9479 79.0417 26.3229L87.5 31.9583L95.9479 26.3229C96.5 25.9479 96.8646 25.3125 96.8646 24.5938L96.875 11.125C96.875 9.97917 95.9375 9.04167 94.7917 9.04167ZM85.4167 24.6667L80.2083 19.4583L81.6771 17.9896L85.4167 21.7188L93.3229 13.8125L94.7917 15.2917L85.4167 24.6667Z" fill="#64537C"/>
<defs>
<clipPath id="clip0_1_39">
<rect width="48" height="48" fill="white"/>
</clipPath>
<clipPath id="clip1_1_39">
<rect width="28" height="28" fill="white" transform="translate(20 58)"/>
</clipPath>
<clipPath id="clip2_1_39">
<rect width="30" height="31" fill="white" transform="translate(64 55)"/>
</clipPath>
</defs>
</svg>
